<?xml version="1.0" encoding="iso-8859-1"?>
<!-- Generator: Adobe Illustrator 19.0.0, SVG Export Plug-In . SVG Version: 6.00 Build 0)  -->
<svg version="1.1" id="Capa_1" xmlns="http://www.w3.org/2000/svg" xmlns:xlink="http://www.w3.org/1999/xlink" x="0px" y="0px"
	 viewBox="0 0 512 512" style="enable-background:new 0 0 512 512;" xml:space="preserve">
<g>
	<path style="fill:#57565C;" d="M245.847,497.819c-4.205,0-7.611-3.408-7.611-7.611c0-13.775,3.003-21.031,5.653-27.434
		c2.412-5.829,4.496-10.864,4.496-21.612c0-10.748-2.083-15.783-4.496-21.612c-2.65-6.403-5.653-13.659-5.653-27.433
		c0-13.773,3.003-21.029,5.653-27.431c2.412-5.828,4.496-10.862,4.496-21.608c0-10.747-2.083-15.781-4.496-21.609
		c-2.65-6.402-5.653-13.658-5.653-27.431c0-13.773,3.003-21.029,5.653-27.431c2.412-5.828,4.496-10.862,4.496-21.608
		c0-4.204,3.407-7.611,7.611-7.611c4.205,0,7.611,3.408,7.611,7.611c0,13.773-3.003,21.028-5.653,27.43
		c-2.412,5.828-4.496,10.862-4.496,21.608c0,10.746,2.083,15.781,4.496,21.609c2.65,6.402,5.653,13.658,5.653,27.432
		c0,13.773-3.003,21.029-5.653,27.431c-2.412,5.828-4.496,10.862-4.496,21.608c0,10.748,2.083,15.783,4.496,21.611
		c2.65,6.403,5.653,13.659,5.653,27.434c0,13.775-3.003,21.031-5.653,27.434c-2.412,5.829-4.496,10.864-4.496,21.612
		C253.459,494.411,250.052,497.819,245.847,497.819z"/>
	<path style="fill:#57565C;" d="M159.955,511.996c-4.205,0-7.611-3.408-7.611-7.611c0-13.775,3.003-21.031,5.653-27.434
		c2.412-5.829,4.496-10.864,4.496-21.612c0-10.748-2.083-15.783-4.496-21.612c-2.65-6.403-5.653-13.659-5.653-27.433
		c0-13.773,3.003-21.029,5.653-27.431c2.412-5.828,4.496-10.862,4.496-21.608c0-10.747-2.083-15.781-4.496-21.609
		c-2.65-6.402-5.653-13.658-5.653-27.431c0-13.773,3.003-21.029,5.653-27.431c2.412-5.828,4.496-10.862,4.496-21.608
		c0-4.204,3.407-7.611,7.611-7.611c4.205,0,7.611,3.408,7.611,7.611c0,13.773-3.003,21.028-5.653,27.43
		c-2.412,5.828-4.496,10.862-4.496,21.608c0,10.746,2.083,15.781,4.496,21.609c2.65,6.402,5.653,13.658,5.653,27.432
		c0,13.773-3.003,21.029-5.653,27.431c-2.412,5.828-4.496,10.862-4.496,21.608c0,10.748,2.083,15.783,4.496,21.611
		c2.65,6.403,5.653,13.659,5.653,27.434c0,13.775-3.003,21.031-5.653,27.434c-2.412,5.829-4.496,10.864-4.496,21.612
		C167.566,508.588,164.159,511.996,159.955,511.996z"/>
	<path style="fill:#57565C;" d="M351.55,512c-4.205,0-7.611-3.408-7.611-7.611c0-13.775,3.003-21.031,5.653-27.434
		c2.412-5.829,4.496-10.864,4.496-21.612c0-10.748-2.084-15.783-4.496-21.612c-2.65-6.403-5.653-13.659-5.653-27.433
		c0-13.773,3.003-21.029,5.653-27.431c2.412-5.828,4.496-10.862,4.496-21.608c0-10.747-2.084-15.781-4.496-21.609
		c-2.65-6.402-5.653-13.658-5.653-27.431c0-13.773,3.003-21.029,5.653-27.431c2.412-5.828,4.496-10.862,4.496-21.608
		c0-4.204,3.407-7.611,7.611-7.611c4.205,0,7.611,3.408,7.611,7.611c0,13.773-3.003,21.028-5.653,27.43
		c-2.412,5.828-4.496,10.862-4.496,21.608c0,10.746,2.084,15.781,4.496,21.609c2.65,6.402,5.653,13.658,5.653,27.432
		c0,13.773-3.003,21.029-5.653,27.431c-2.412,5.828-4.496,10.862-4.496,21.608c0,10.748,2.084,15.783,4.496,21.611
		c2.65,6.403,5.653,13.659,5.653,27.434c0,13.775-3.003,21.031-5.653,27.434c-2.412,5.829-4.496,10.864-4.496,21.612
		C359.161,508.592,355.754,512,351.55,512z"/>
</g>
<path style="fill:#FFE477;" d="M171.911,277.111h-11.09h-11.09l-13.486,10.013c-5.66,4.203-3.065,13.177,3.965,13.71l9.521,0.722
	l4.401,8.083c2.885,5.3,10.493,5.3,13.378,0l4.401-8.083l9.521-0.722c7.03-0.533,9.625-9.507,3.965-13.71L171.911,277.111z"/>
<path style="fill:#FFDA44;" d="M162.994,282.784l0.159-5.673h-2.334h-11.09l-13.486,10.013c-5.66,4.203-3.065,13.177,3.965,13.71
	l9.521,0.722l4.401,8.083c2.467,4.531,8.379,5.175,11.846,1.957C158.43,290.147,162.994,282.784,162.994,282.784z"/>
<ellipse style="fill:#FFD422;" cx="160.816" cy="269.668" rx="20.143" ry="16.975"/>
<path style="fill:#EEBF00;" d="M159.578,269.672c0-6.495,4.333-12.134,10.693-14.987c-2.819-1.266-6.033-1.987-9.45-1.987
	c-11.125,0-20.143,7.6-20.143,16.975c0,9.374,9.018,16.975,20.143,16.975c3.417,0,6.631-0.723,9.45-1.987
	C163.911,281.805,159.578,276.167,159.578,269.672z"/>
<ellipse style="fill:#FFEB99;" cx="160.816" cy="165.442" rx="95.173" ry="109.381"/>
<path style="fill:#FFDA44;" d="M206.461,261.444c29.518-18.575,49.535-54.602,49.535-96.006c0-14.665-2.517-28.651-7.073-41.432
	h-87.258C161.666,124.008,151.79,203.491,206.461,261.444z"/>
<path style="fill:#B9D8F4;" d="M363.338,277.116h-11.09h-11.09l-13.486,10.013c-5.66,4.203-3.065,13.177,3.965,13.71l9.521,0.722
	l4.401,8.083c2.885,5.3,10.493,5.3,13.378,0l4.401-8.083l9.521-0.722c7.03-0.533,9.625-9.507,3.965-13.71L363.338,277.116z"/>
<path style="fill:#96C8EF;" d="M354.422,282.789l0.159-5.673h-2.334h-11.09l-13.486,10.013c-5.66,4.203-3.065,13.177,3.965,13.71
	l9.521,0.722l4.401,8.083c2.467,4.531,8.379,5.175,11.846,1.957C349.858,290.151,354.422,282.789,354.422,282.789z"/>
<ellipse style="fill:#78B9EB;" cx="352.249" cy="269.678" rx="20.143" ry="16.975"/>
<path style="fill:#5AAAE7;" d="M351.006,269.676c0-6.495,4.333-12.134,10.693-14.987c-2.819-1.266-6.033-1.987-9.45-1.987
	c-11.125,0-20.143,7.6-20.143,16.975c0,9.374,9.018,16.975,20.143,16.975c3.417,0,6.631-0.723,9.45-1.987
	C355.338,281.809,351.006,276.171,351.006,269.676z"/>
<ellipse style="fill:#D1E7F8;" cx="351.184" cy="165.442" rx="95.173" ry="109.381"/>
<path style="fill:#B9D8F4;" d="M305.54,261.448c-29.518-18.575-49.535-54.602-49.535-96.006c0-14.665,2.517-28.651,7.073-41.432
	h87.258C350.335,124.012,360.211,203.495,305.54,261.448z"/>
<path style="fill:#FF3F62;" d="M267.089,221.057h-11.09h-11.09l-13.486,10.013c-5.66,4.203-3.065,13.177,3.965,13.71l9.521,0.722
	l4.401,8.083c2.885,5.3,10.493,5.3,13.378,0l4.401-8.083l9.521-0.722c7.03-0.533,9.625-9.507,3.965-13.71L267.089,221.057z"/>
<path style="fill:#FF0C38;" d="M258.173,226.739l0.159-5.673h-2.334h-11.09l-13.486,10.013c-5.66,4.203-3.065,13.177,3.965,13.71
	l9.521,0.722l4.401,8.083c2.467,4.531,8.379,5.175,11.846,1.957C253.609,234.101,258.173,226.739,258.173,226.739z"/>
<ellipse style="fill:#C70024;" cx="256" cy="213.617" rx="20.143" ry="16.975"/>
<path style="fill:#A5001E;" d="M254.757,213.617c0-6.495,4.333-12.134,10.693-14.987c-2.819-1.266-6.033-1.987-9.45-1.987
	c-11.125,0-20.143,7.6-20.143,16.975s9.018,16.975,20.143,16.975c3.417,0,6.631-0.723,9.45-1.987
	C259.089,225.751,254.757,220.113,254.757,213.617z"/>
<ellipse style="fill:#FF728B;" cx="256" cy="109.381" rx="95.173" ry="109.381"/>
<path style="fill:#FF3F62;" d="M213.62,101.773c0-44.978,23.624-83.609,57.387-100.414C266.118,0.468,261.106,0,255.999,0
	c-52.566,0-95.178,48.973-95.178,109.384s42.613,109.384,95.178,109.384c13.43,0,26.206-3.203,37.791-8.969
	C248.356,201.526,213.62,156.315,213.62,101.773z"/>
<g>
</g>
<g>
</g>
<g>
</g>
<g>
</g>
<g>
</g>
<g>
</g>
<g>
</g>
<g>
</g>
<g>
</g>
<g>
</g>
<g>
</g>
<g>
</g>
<g>
</g>
<g>
</g>
<g>
</g>
</svg>
